<svg xmlns="http://www.w3.org/2000/svg" viewBox="0 0 200 200" width="200" height="200">
  <!-- Background circle -->
  <circle cx="100" cy="100" r="95" fill="#1a1a2e" stroke="#16213e" stroke-width="2"/>
  
  <!-- Circuit board traces -->
  <g stroke="#3498db" stroke-width="3" fill="none">
    <!-- Horizontal traces -->
    <line x1="20" y1="60" x2="80" y2="60"/>
    <line x1="120" y1="60" x2="180" y2="60"/>
    <line x1="20" y1="100" x2="60" y2="100"/>
    <line x1="140" y1="100" x2="180" y2="100"/>
    <line x1="20" y1="140" x2="80" y2="140"/>
    <line x1="120" y1="140" x2="180" y2="140"/>
    
    <!-- Vertical traces -->
    <line x1="60" y1="20" x2="60" y2="80"/>
    <line x1="100" y1="20" x2="100" y2="50"/>
    <line x1="140" y1="20" x2="140" y2="80"/>
    <line x1="60" y1="120" x2="60" y2="180"/>
    <line x1="100" y1="150" x2="100" y2="180"/>
    <line x1="140" y1="120" x2="140" y2="180"/>
    
    <!-- Diagonal traces -->
    <line x1="80" y1="60" x2="120" y2="100"/>
    <line x1="120" y1="60" x2="80" y2="100"/>
    <line x1="80" y1="100" x2="120" y2="140"/>
    <line x1="120" y1="100" x2="80" y2="140"/>
  </g>
  
  <!-- Central microchip -->
  <rect x="75" y="75" width="50" height="50" fill="#2c3e50" stroke="#ecf0f1" stroke-width="2" rx="3"/>
  <rect x="80" y="80" width="40" height="40" fill="#34495e" stroke="#bdc3c7" stroke-width="1" rx="2"/>
  <rect x="85" y="85" width="30" height="30" fill="#1a1a2e" stroke="#ecf0f1" stroke-width="1" rx="1"/>
  
  <!-- Chip pins -->
  <g fill="#ecf0f1">
    <!-- Top pins -->
    <rect x="82" y="70" width="3" height="8"/>
    <rect x="88" y="70" width="3" height="8"/>
    <rect x="94" y="70" width="3" height="8"/>
    <rect x="100" y="70" width="3" height="8"/>
    <rect x="106" y="70" width="3" height="8"/>
    <rect x="112" y="70" width="3" height="8"/>
    
    <!-- Bottom pins -->
    <rect x="82" y="122" width="3" height="8"/>
    <rect x="88" y="122" width="3" height="8"/>
    <rect x="94" y="122" width="3" height="8"/>
    <rect x="100" y="122" width="3" height="8"/>
    <rect x="106" y="122" width="3" height="8"/>
    <rect x="112" y="122" width="3" height="8"/>
    
    <!-- Left pins -->
    <rect x="70" y="82" width="8" height="3"/>
    <rect x="70" y="88" width="8" height="3"/>
    <rect x="70" y="94" width="8" height="3"/>
    <rect x="70" y="100" width="8" height="3"/>
    <rect x="70" y="106" width="8" height="3"/>
    <rect x="70" y="112" width="8" height="3"/>
    
    <!-- Right pins -->
    <rect x="122" y="82" width="8" height="3"/>
    <rect x="122" y="88" width="8" height="3"/>
    <rect x="122" y="94" width="8" height="3"/>
    <rect x="122" y="100" width="8" height="3"/>
    <rect x="122" y="106" width="8" height="3"/>
    <rect x="122" y="112" width="8" height="3"/>
  </g>
  
  <!-- Connection points -->
  <g fill="#3498db">
    <circle cx="60" cy="60" r="4"/>
    <circle cx="140" cy="60" r="4"/>
    <circle cx="60" cy="140" r="4"/>
    <circle cx="140" cy="140" r="4"/>
    <circle cx="100" cy="40" r="4"/>
    <circle cx="100" cy="160" r="4"/>
    <circle cx="40" cy="100" r="4"/>
    <circle cx="160" cy="100" r="4"/>
  </g>
  
  <!-- Additional connection points -->
  <g fill="#e74c3c">
    <circle cx="30" cy="60" r="3"/>
    <circle cx="170" cy="60" r="3"/>
    <circle cx="30" cy="140" r="3"/>
    <circle cx="170" cy="140" r="3"/>
    <circle cx="60" cy="30" r="3"/>
    <circle cx="140" cy="30" r="3"/>
    <circle cx="60" cy="170" r="3"/>
    <circle cx="140" cy="170" r="3"/>
  </g>
  
  <!-- Chip details -->
  <g fill="#95a5a6">
    <circle cx="90" cy="90" r="1.5"/>
    <circle cx="110" cy="90" r="1.5"/>
    <circle cx="90" cy="110" r="1.5"/>
    <circle cx="110" cy="110" r="1.5"/>
  </g>
</svg>